<?xml version="1.0" standalone="no"?>
<!DOCTYPE svg PUBLIC "-//W3C//DTD SVG 1.1//EN" "http://www.w3.org/Graphics/SVG/1.1/DTD/svg11.dtd" >
<svg xmlns="http://www.w3.org/2000/svg">
<metadata>Generated by IcoMoon</metadata>
<defs>
<font id="icomoon" horiz-adv-x="1024">
<font-face units-per-em="1024" ascent="896" descent="-128" />
<missing-glyph horiz-adv-x="1024" />
<glyph unicode="&#x20;" horiz-adv-x="512" d="" />
<glyph unicode="&#xe604;" glyph-name="love" d="M1022 492q-10 30-41 35l-292 51-131 263q-14 29-46 29t-46-29l-131-263-292-53q-31-5-41-35t13-52l211-196-55-284q-5-31 21-50 13-10 30-10 12 0 23 6l267 131 265-131q11-6 24-6 16 0 30 10 26 19 20 50l-53 284 211 197q23 23 13 53z" />
<glyph unicode="&#xe60b;" glyph-name="delete" d="M325 64q13 0 22 9.5t9 22.5v352q0 13-9 22.5t-22 9.5-22-9.5-9-22.5v-352q0-13 9-22.5t22-9.5zM512 64q13 0 22 9.5t9 22.5v352q0 13-9 22.5t-22 9.5-22-9.5-9-22.5v-352q0-13 9-22.5t22-9.5zM699 64q13 0 22 9.5t9 22.5v352q0 13-9 22.5t-22 9.5-22-9.5-9-22.5v-352q0-13 9-22.5t22-9.5zM855 800h-129q-11 42-44.5 69t-76.5 27h-186q-43 0-76.5-27t-44.5-69h-129q-51 0-87.5-37.5t-36.5-90.5v-32h31v-32h62v-608q0-53 36.5-90.5t88.5-37.5h498q52 0 88.5 37.5t36.5 90.5v608h62v32h31v32q0 53-36.5 90.5t-87.5 37.5zM419 832h186q36 0 54-32h-294q18 32 54 32zM824 0q0-26-18.5-45t-44.5-19h-498q-27 0-47 19t-20 45l4 608h624v-608zM107 672q0 26 18 45t44 19h686q26 0 44-19t18-45h-810z" />
<glyph unicode="&#xe611;" glyph-name="close" d="M558 384l433 433q9 9 9 22.5t-9.5 23-23 9.5-22.5-9l-433-433-433 433q-9 9-22.5 9t-23-9.5-9.5-23 9-22.5l433-433-433-433q-9-9-9-22.5t9.5-23 23-9.5 22.5 9l433 433 433-433q9-9 22.5-9t23 9.5 9.5 23-9 22.5z" />
<glyph unicode="&#xe612;" glyph-name="filter" d="M963.5 852q-7.5 17-23.5 27.5t-35 10.5h-786q-19 0-35-10.5t-23.5-27.5-4.5-36 16-32l333-364v-399q0-26 18-44 13-14 35-35l48-46q19-18 44-18 8 0 15 2 33 8 45 41 9 27 9 57v442l333 364q13 13 16 32t-4.5 36zM556 445v-467q0-20-6-36-25 24-49 46-33 31-33 33v424l-349 381h786z" />
<glyph unicode="&#xe619;" glyph-name="star" d="M924 561l-210 41-104 187q-14 26-39 40.5t-55 14.5-55-14.5-40-40.5l-103-187-209-40q-29-6-51-25t-31-47q-20-61 24-108l145-156-26-212q-7-63 44-101 28-20 63-20 24 0 46 10l193 91 194-91q58-27 109 11 25 18 36.5 44.5t7.5 56.5l-27 212 146 155q44 47 24 107-10 28-32 47.5t-50 24.5zM933 427l-156-167q-11-12-9-27l29-227q3-24-17-39t-43-4l-207 97q-14 6-27 0l-208-97q-22-11-42 4t-17 39l28 227q2 15-8 26l-157 167q-17 19-9 43 6 23 32 28l225 42q15 3 22 17l110 201q12 21 37 21t37-21l111-201q7-13 23-17l225-43q24-4 31-29 7-22-10-40v0zM772 686q5-1 8-1 11 0 20 6.5t11 18.5l33 132q4 13-3 24.5t-20 15.5q-14 3-25.5-4t-15.5-20l-33-132q-3-14 4-25.5t21-14.5v0zM879 652q14 0 23 9l99 99q10 10 10 23.5t-10 23.5-23.5 10-23.5-10l-99-99q-10-10-10-23.5t10-23 24-9.5z" />
<glyph unicode="&#xe61a;" glyph-name="prize" d="M516.5 711q-92.5 0-158.5-66t-66-158.5 66-158.5 158.5-66 158.5 66 66 158.5-66 158.5-158.5 66zM516.5 315q-70.5 0-121 50.5t-50.5 121 50.5 121 121 50.5 121-50.5 50.5-121-50.5-121-121-50.5zM1006 109l-132 198q0 1-2 3 41 84 41 177 0 107-53 198t-144 144.5-198.5 53.5-198.5-53.5-144.5-144.5-53.5-198q0-92 42-177l-3-3-132-198q-9-14-3-31 7-16 24-20l152-30 92-122q9-13 26-13h3q18 2 26 18l94 186q38-7 75-7t76 7l93-186q9-17 27-18h3q16 0 26 13l92 122 152 30q18 4 24 20 6 17-4 31zM313-12l-67 90q-7 10-20 12l-116 23 90 136q70-92 177-133l-64-128zM516.5 157q-89.5 0-165.5 44t-120 120-44 165.5 44 165.5 120 120.5 165.5 44.5 165.5-44.5 120.5-120.5 44.5-165.5-44.5-165.5-120.5-120-165.5-44zM807 90q-12-2-20-12l-66-90-64 128q108 42 176 134l91-136-117-24z" />
<glyph unicode="&#xe626;" glyph-name="sort" horiz-adv-x="1025" d="M392 896h-345q-20 0-33.5-13.5t-13.5-33.5v-345q0-19 13.5-32.5t33.5-13.5h345q19 0 32.5 13.5t13.5 32.5v345q1 20-13 33.5t-33 13.5v0zM392 504v0h-345v345h345v-345zM978 896h-345q-20 0-33.5-13.5t-13.5-33.5v-345q0-19 13.5-32.5t33.5-13.5h345q19 0 32.5 13.5t13.5 32.5v345q0 20-13.5 33.5t-32.5 13.5v0zM978 504v0h-345v345h345v-345zM392 311h-345q-20 0-33.5-14t-13.5-33v-345q0-20 13.5-33.5t33.5-13.5h345q19 0 32.5 13.5t13.5 33.5v345q1 19-13 33t-33 14v0zM392-81v0h-345v345h345v-345zM978 311h-345q-20 0-33.5-14t-13.5-33v-345q0-19 13.5-33t33.5-14h345q19 0 32.5 14t13.5 33v345q0 19-13.5 33t-32.5 14v0zM978-81v0h-345v345h345v-345z" />
<glyph unicode="&#xe900;" glyph-name="fail" d="M512 768c-212.1 0-384-171.9-384-384s171.9-384 384-384 384 171.9 384 384-171.9 384-384 384zM636.5 218.3l-126.7 126.7-121-121-44.8 44.8 121 121-122.7 122.7 45.3 45.3 122.6-122.8 125 125 44.8-44.8-125-125 126.7-126.7-45.2-45.2z" />
<glyph unicode="&#xe902;" glyph-name="warning" d="M512 872c-266.201 0-482-215.799-482-482s215.799-482 482-482 482 215.799 482 482-215.799 482-482 482zM512-8.004c-219.812 0-398.004 178.192-398.004 398.004s178.192 398.004 398.004 398.004 398.005-178.192 398.005-398.004-178.193-398.004-398.005-398.004zM539.566 231.995c-8.322 4.843-17.684 7.282-28.087 7.282-10.402-0.699-20.122-3.3-29.126-7.802-9.021-4.52-15.961-11.622-20.805-21.325-4.86-9.004-7.281-18.545-7.281-28.605 0-10.044 2.421-19.586 7.281-28.605 4.844-9.006 11.605-15.946 20.285-20.804 8.663-4.846 18.544-7.282 29.646-7.282 10.403-0.683 19.765 1.396 28.087 6.241 8.321 4.859 15.245 12.141 20.805 21.845 5.542 9.719 8.662 19.422 9.361 29.125 0 9.021-2.959 18.383-8.843 28.086-5.899 9.703-13.001 16.985-21.323 21.844zM548.912 639.803c-11.153 10.297-23.644 15.471-37.483 15.471-16.146-1.040-29.031-6.72-38.636-17.019-9.623-10.321-15.966-22.432-19.030-36.356-3.081-13.923-3.856-28.113-2.307-42.544l29.986-245.987c0.757-10.321 3.64-20.111 8.65-29.393 4.992-9.284 12.109-13.926 21.336-13.926 8.453-1.038 15.372 3.603 20.761 13.926 5.369 10.296 8.829 20.111 10.38 29.393l29.985 245.987c1.532 15.471 0.758 30.167-2.307 44.091-3.079 13.924-10.198 26.034-21.335 36.357z" />
<glyph unicode="&#xe903;" glyph-name="message" d="M511.298 822.189c-241.308 0-437.066-195.618-437.066-436.994 0-241.378 195.758-437.068 437.066-437.068 241.447 0 437.063 195.689 437.063 437.068 0 241.377-195.616 436.994-437.063 436.994zM579.836 224.321c-32.969-49.453-66.485-87.686-122.982-87.686-38.575 6.29-54.309 33.925-45.963 62.035l72.638 240.558c1.778 5.883-1.229 12.172-6.567 14.091-5.335 1.847-15.869-5.132-25.033-15.051l-43.775-52.801c-1.232 8.823-0.138 23.53-0.138 29.411 32.969 49.521 87.138 88.574 123.802 88.574 35.019-3.554 51.573-31.461 45.417-62.173l-73.047-241.649c-1.094-5.473 1.914-11.011 6.838-12.793 5.335-1.847 16.691 5.133 25.717 15.047l43.914 52.804c1.229-8.825-0.819-24.418-0.819-30.367zM570.122 538.541c-27.77 0-50.342 20.179-50.342 49.999 0 29.755 22.574 50.001 50.342 50.001s50.206-20.245 50.206-50.001c0-29.819-22.438-49.999-50.206-49.999z" />
<glyph unicode="&#xe904;" glyph-name="success" d="M887.254 542.257c-20.511 48.423-49.759 91.872-87.139 129.251s-80.828 66.628-129.251 87.139c-50.123 21.238-103.402 31.918-158.257 31.918s-108.134-10.801-158.257-31.918c-48.423-20.511-91.872-49.759-129.251-87.139s-66.628-80.828-87.139-129.251c-21.238-50.123-31.918-103.402-31.918-158.257s10.801-108.134 31.918-158.257c20.511-48.423 49.759-91.872 87.139-129.251s80.828-66.628 129.251-87.139c50.123-21.238 103.402-31.918 158.257-31.918s108.134 10.801 158.257 31.918c48.423 20.511 91.872 49.759 129.251 87.139s66.628 80.828 87.139 129.251c21.238 50.123 31.918 103.402 31.918 158.257s-10.801 108.134-31.918 158.257zM740.405 494.077l-280.227-280.227c-11.286-11.286-29.855-11.286-41.142 0l-143.209 143.209c-11.286 11.286-11.286 29.855 0 41.142s29.855 11.286 41.142 0l122.576-122.576 259.596 259.596c11.286 11.286 29.855 11.286 41.142 0 11.408-11.286 11.408-29.733 0.122-41.142z" />
<glyph unicode="&#xe92f;" glyph-name="folder" d="M448 768l128-128h448v-704h-1024v832z" />
<glyph unicode="&#xe953;" glyph-name="date" d="M320 512h128v-128h-128zM512 512h128v-128h-128zM704 512h128v-128h-128zM128 128h128v-128h-128zM320 128h128v-128h-128zM512 128h128v-128h-128zM320 320h128v-128h-128zM512 320h128v-128h-128zM704 320h128v-128h-128zM128 320h128v-128h-128zM832 896v-64h-128v64h-448v-64h-128v64h-128v-1024h960v1024h-128zM896-64h-832v704h832v-704z" />
<glyph unicode="&#xe965;" glyph-name="rotate-left" d="M512 832c-141.384 0-269.376-57.32-362.032-149.978l-149.968 149.978v-384h384l-143.532 143.522c69.496 69.492 165.492 112.478 271.532 112.478 212.068 0 384-171.924 384-384 0-114.696-50.292-217.636-130.018-288l84.666-96c106.302 93.816 173.352 231.076 173.352 384 0 282.77-229.23 512-512 512z" />
<glyph unicode="&#xe966;" glyph-name="rotate-right" d="M0 320c0-152.924 67.048-290.184 173.35-384l84.666 96c-79.726 70.364-130.016 173.304-130.016 288 0 212.076 171.93 384 384 384 106.042 0 202.038-42.986 271.53-112.478l-143.53-143.522h384v384l-149.97-149.978c-92.654 92.658-220.644 149.978-362.030 149.978-282.77 0-512-229.23-512-512z" />
<glyph unicode="&#xe987;" glyph-name="zoom-in" d="M992.262 24.604l-242.552 206.294c-25.074 22.566-51.89 32.926-73.552 31.926 57.256 67.068 91.842 154.078 91.842 249.176 0 212.078-171.922 384-384 384-212.076 0-384-171.922-384-384s171.922-384 384-384c95.098 0 182.108 34.586 249.176 91.844-1-21.662 9.36-48.478 31.926-73.552l206.294-242.552c35.322-39.246 93.022-42.554 128.22-7.356s31.892 92.898-7.354 128.22zM384 256c-141.384 0-256 114.616-256 256s114.616 256 256 256 256-114.616 256-256-114.614-256-256-256zM448 704h-128v-128h-128v-128h128v-128h128v128h128v128h-128z" />
<glyph unicode="&#xe988;" glyph-name="zoom-out" d="M992.262 24.604l-242.552 206.294c-25.074 22.566-51.89 32.926-73.552 31.926 57.256 67.068 91.842 154.078 91.842 249.176 0 212.078-171.922 384-384 384-212.076 0-384-171.922-384-384s171.922-384 384-384c95.098 0 182.108 34.586 249.176 91.844-1-21.662 9.36-48.478 31.926-73.552l206.294-242.552c35.322-39.246 93.022-42.554 128.22-7.356s31.892 92.898-7.354 128.22zM384 256c-141.384 0-256 114.616-256 256s114.616 256 256 256 256-114.616 256-256-114.614-256-256-256zM192 576h384v-128h-384z" />
<glyph unicode="&#xe9c6;" glyph-name="upload" d="M0 0h1024v-64h-1024zM1024 128v-64h-1024v64l128 256h256v-128h256v128h256zM224 576l288 288 288-288h-224v-256h-128v256z" />
<glyph unicode="&#xea10;" glyph-name="checkmark" d="M864 768l-480-480-224 224-160-160 384-384 640 640z" />
<glyph unicode="&#xea2e;" glyph-name="reset" d="M889.68 729.68c-93.608 102.216-228.154 166.32-377.68 166.32-282.77 0-512-229.23-512-512h96c0 229.75 186.25 416 416 416 123.020 0 233.542-53.418 309.696-138.306l-149.696-149.694h352v352l-134.32-134.32zM928 384c0-229.75-186.25-416-416-416-123.020 0-233.542 53.418-309.694 138.306l149.694 149.694h-352v-352l134.32 134.32c93.608-102.216 228.154-166.32 377.68-166.32 282.77 0 512 229.23 512 512h-96z" />
<glyph unicode="&#xea3a;" glyph-name="arrow-up" d="M877.254 493.254l-320 320c-24.992 24.994-65.514 24.994-90.508 0l-320-320c-24.994-24.994-24.994-65.516 0-90.51 24.994-24.996 65.516-24.996 90.51 0l210.744 210.746v-613.49c0-35.346 28.654-64 64-64s64 28.654 64 64v613.49l210.746-210.746c12.496-12.496 28.876-18.744 45.254-18.744s32.758 6.248 45.254 18.746c24.994 24.994 24.994 65.514 0 90.508z" />
<glyph unicode="&#xea3c;" glyph-name="arrow-right" d="M621.254 18.746l320 320c24.994 24.992 24.994 65.516 0 90.51l-320 320c-24.994 24.992-65.516 24.992-90.51 0-24.994-24.994-24.994-65.516 0-90.51l210.746-210.746h-613.49c-35.346 0-64-28.654-64-64s28.654-64 64-64h613.49l-210.746-210.746c-12.496-12.496-18.744-28.876-18.744-45.254s6.248-32.758 18.744-45.254c24.994-24.994 65.516-24.994 90.51 0z" />
<glyph unicode="&#xea3e;" glyph-name="arrow-down" d="M877.254 274.746l-320-320c-24.992-24.994-65.514-24.994-90.508 0l-320 320c-24.994 24.994-24.994 65.516 0 90.51 24.994 24.996 65.516 24.996 90.51 0l210.744-210.746v613.49c0 35.346 28.654 64 64 64s64-28.654 64-64v-613.49l210.746 210.746c12.496 12.496 28.876 18.744 45.254 18.744s32.758-6.248 45.254-18.746c24.994-24.994 24.994-65.514 0-90.508z" />
<glyph unicode="&#xea40;" glyph-name="arrow-left" d="M402.746 18.746l-320 320c-24.994 24.992-24.994 65.516 0 90.51l320 320c24.994 24.992 65.516 24.992 90.51 0 24.994-24.994 24.994-65.516 0-90.51l-210.746-210.746h613.49c35.346 0 64-28.654 64-64s-28.654-64-64-64h-613.49l210.746-210.746c12.496-12.496 18.744-28.876 18.744-45.254s-6.248-32.758-18.744-45.254c-24.994-24.994-65.516-24.994-90.51 0z" />
<glyph unicode="&#xea45;" glyph-name="scaleX" d="M960 896h64v-512h-64v512zM0 384h64v-512h-64v512zM320 192h704v-128h-704v-160l-224 224 224 224v-160zM704 576h-704v128h704v160l224-224-224-224z" />
</font>
</defs>
</svg>
